<?xml version="1.0" encoding="utf-8"?>
<!-- Generator: Adobe Illustrator 23.0.1, SVG Export Plug-In . SVG Version: 6.00 Build 0)  -->
<svg version="1.1" id="Layer_1" xmlns="http://www.w3.org/2000/svg" xmlns:xlink="http://www.w3.org/1999/xlink" x="0px" y="0px"
	 viewBox="0 0 96 95.8" style="enable-background:new 0 0 96 95.8;" xml:space="preserve">
<style type="text/css">
	.st0{fill:#383838;}
</style>
<g>
	<path class="st0" d="M73.3,3H22.7c-4.2,0-7.6,3.4-7.6,7.6v6.7h65.8v-6.7C80.9,6.4,77.5,3,73.3,3z M58.1,11.7H37.5V9h20.6V11.7z"/>
	<rect x="15.1" y="20" class="st0" width="65.8" height="55.7"/>
	<path class="st0" d="M15.1,85.2c0,4.2,3.4,7.6,7.6,7.6h50.6c4.2,0,7.6-3.4,7.6-7.6v-7H15.1V85.2z M48,82.1c1.9,0,3.4,1.5,3.4,3.4
		c0,1.9-1.5,3.4-3.4,3.4s-3.4-1.5-3.4-3.4C44.6,83.6,46.1,82.1,48,82.1z"/>
</g>
</svg>
