<?xml version="1.0" encoding="utf-8"?>
<!-- Generator: Adobe Illustrator 23.0.1, SVG Export Plug-In . SVG Version: 6.00 Build 0)  -->
<svg version="1.1" id="Layer_1" xmlns="http://www.w3.org/2000/svg" xmlns:xlink="http://www.w3.org/1999/xlink" x="0px" y="0px"
	 viewBox="0 0 100 100.1" style="enable-background:new 0 0 100 100.1;" xml:space="preserve">
<style type="text/css">
	.st0{fill:#383838;}
</style>
<title>03</title>
<g>
	<path class="st0" d="M86.6,8.9H13.4c-2.5,0-4.5,1.9-4.5,4.5l0,0v73.1c0,2.5,1.9,4.5,4.5,4.5h73.1c2.5,0,4.5-1.9,4.5-4.5V13.4
		C91,10.9,89.1,8.9,86.6,8.9L86.6,8.9z M27.7,65.8L39.4,54L27.7,42.2l6.3-6.3l14.8,14.9c1.8,1.8,1.8,4.6,0,6.3l0,0L33.9,72
		L27.7,65.8z M66.1,72.1H48.5v-8.9h17.4L66.1,72.1z"/>
</g>
</svg>
