<svg id="Layer_1" data-name="Layer 1" xmlns="http://www.w3.org/2000/svg" viewBox="0 0 96 95.8"><defs><style>.cls-1{fill:#383838;}</style></defs><title>soundwave</title><path class="cls-1" d="M32,84.9a8,8,0,0,1-8-8v-57a4,4,0,0,0-8,0V43.3a8.6,8.6,0,0,1-8.6,8.6H0v-4H7.4A4.65,4.65,0,0,0,12,43.3V19.9a8,8,0,0,1,16,0v57a4,4,0,0,0,8,0v-41a8,8,0,0,1,16,0v20a4,4,0,0,0,4,4h1a4,4,0,0,0,4-4v-37a8,8,0,1,1,16,0v57a4,4,0,0,0,8,0V54.5a8.6,8.6,0,0,1,8.6-8.6H96v4H93.6A4.65,4.65,0,0,0,89,54.5V75.9a8,8,0,0,1-16,0v-57a4,4,0,0,0-8,0v37a8,8,0,0,1-8,8H56a8,8,0,0,1-8-8v-20a4,4,0,0,0-8,0v41A8,8,0,0,1,32,84.9Z"/></svg>