<?xml version="1.0" encoding="utf-8"?>
<!-- Generator: Adobe Illustrator 23.0.1, SVG Export Plug-In . SVG Version: 6.00 Build 0)  -->
<svg version="1.1" id="Layer_1" xmlns="http://www.w3.org/2000/svg" xmlns:xlink="http://www.w3.org/1999/xlink" x="0px" y="0px"
	 viewBox="0 0 48 48.2" style="enable-background:new 0 0 48 48.2;" xml:space="preserve">
<style type="text/css">
	.st0{fill:#383838;}
</style>
<g>
	<g>
		<path class="st0" d="M46.9,5.6H1.1C0.4,5.6,0,6,0,6.6V35c0,0.7,0.4,1.1,1.1,1.1H17l-1.4,4.4H6.5c-0.7,0-1.1,0.4-1.1,1.1
			c0,0.7,0.4,1.1,1.1,1.1h9.8h15.3h9.8c0.7,0,1.1-0.4,1.1-1.1c0-0.7-0.4-1.1-1.1-1.1h-9.1L31,36.1h15.9c0.7,0,1.1-0.4,1.1-1.1V6.6
			C48,6.1,47.6,5.6,46.9,5.6z M30.1,40.5H17.9l1.4-4.4h9.4L30.1,40.5z M29.5,33.9H18.5H2.2V12.1h4.4c0.7,0,1.1-0.4,1.1-1.1
			S7.2,9.9,6.5,9.9H2.2V7.7h43.6v2.2H16.4c-0.7,0-1.1,0.4-1.1,1.1s0.4,1.1,1.1,1.1h29.5v21.8H29.5z"/>
		<path class="st0" d="M13.1,11c0-0.7-0.4-1.1-1.1-1.1h-1.1c-0.7,0-1.1,0.4-1.1,1.1s0.4,1.1,1.1,1.1H12C12.7,12.1,13.1,11.7,13.1,11
			z"/>
		<path class="st0" d="M19.3,27.7L14.6,23l4.7-4.7c0.4-0.4,0.4-1.1,0-1.5s-1.1-0.4-1.5,0l-5.5,5.5c-0.4,0.4-0.4,1.1,0,1.5l5.5,5.5
			c0.2,0.2,0.5,0.3,0.8,0.3c0.2,0,0.5-0.1,0.8-0.3C19.7,28.8,19.7,28.1,19.3,27.7z"/>
		<path class="st0" d="M30.2,16.8c-0.4-0.4-1.1-0.4-1.5,0s-0.4,1.1,0,1.5l4.7,4.7l-4.7,4.7c-0.4,0.4-0.4,1.1,0,1.5
			c0.2,0.2,0.5,0.3,0.8,0.3c0.2,0,0.5-0.1,0.8-0.3l5.5-5.5c0.4-0.4,0.4-1.1,0-1.5L30.2,16.8z"/>
		<path class="st0" d="M27.7,14.4c-0.5-0.2-1.2,0-1.4,0.5l-6.5,15.3c-0.2,0.5,0,1.2,0.5,1.4c0.1,0.1,0.3,0.1,0.4,0.1
			c0.4,0,0.9-0.2,1-0.7l6.5-15.3C28.5,15.3,28.3,14.6,27.7,14.4z"/>
	</g>
</g>
</svg>
